<svg id="Capa_1" enable-background="new 0 0 510 510" height="512" viewBox="0 0 510 510" width="512" xmlns="http://www.w3.org/2000/svg"><path d="m439.076 105.698h-3.9c.12-.12 25.038-24.941 25.15-25.069 17.932-18.655 17.723-48.277-.67-66.669-18.89-18.89-49.05-18.19-66.909-.44l-91.858 92.178h-229.965c-24.119 0-43.739 19.62-43.739 43.739v211.545c0 24.12 19.62 43.739 43.739 43.739h131.117l-5.7 75.279h-25.44c-8.28 0-15 6.72-15 15s6.72 15 15 15h168.196c8.28 0 15-6.72 15-15s-6.72-15-15-15h-25.44l-5.7-75.279h131.117c24.119 0 43.739-19.619 43.739-43.739v-211.544c.002-24.12-19.617-43.74-43.737-43.74zm13.74 255.285c0 7.58-6.16 13.739-13.74 13.739-25.037 0-357.333 0-368.153 0-7.58 0-13.74-6.16-13.74-13.739v-211.545c0-7.58 6.16-13.74 13.74-13.74h200.067l-34.529 34.649c-22.068-2.379-44.672 4.841-61.469 21.65-23.312 23.292-34.892 96.876-38.329 128.417-1.036 9.559 7.073 17.582 16.54 16.529 32.457-3.53 105.237-15.063 128.417-38.319 16.632-16.634 24.056-39.149 21.65-61.469l101.808-101.458h33.999c7.58 0 13.74 6.16 13.74 13.74v211.546zm-169.247 119.018h-57.139l5.7-75.279h45.739zm130.298-445.171c6.88-6.5 17.87-6.36 24.569.34 6.71 6.71 6.85 17.699.35 24.58-97.473 97.134 1.274-1.269-146.357 145.857-5.971-9.618-14.373-18.202-24.419-24.419 70.342-70.592 6.781-6.81 145.857-146.358zm-244.895 269.814c2.974-19.799 13.242-77.457 27.229-91.438 17.681-17.702 46.435-17.774 64.209 0 17.736 17.734 17.655 46.553 0 64.209-14.044 14.044-71.781 24.287-91.438 27.229z"/></svg>