<?xml version="1.0" standalone="no"?>
<!DOCTYPE svg PUBLIC "-//W3C//DTD SVG 20010904//EN"
 "http://www.w3.org/TR/2001/REC-SVG-20010904/DTD/svg10.dtd">
<svg version="1.0" xmlns="http://www.w3.org/2000/svg"
 width="500.000000pt" height="500.000000pt" viewBox="0 0 500.000000 500.000000"
 preserveAspectRatio="xMidYMid meet">
<metadata>
Created by potrace 1.14, written by Peter Selinger 2001-2017
</metadata>
<g transform="translate(0.000000,500.000000) scale(0.100000,-0.100000)"
fill="#000000" stroke="none">
<path d="M2200 3155 c0 -16 65 -146 68 -136 5 15 -48 141 -60 141 -4 0 -8 -2
-8 -5z"/>
<path d="M2668 3020 c21 -79 40 -133 44 -126 7 12 0 43 -48 214 -8 28 -18 52
-23 52 -5 0 7 -63 27 -140z"/>
<path d="M2933 3144 c-3 -9 -37 -111 -74 -227 -61 -188 -72 -233 -54 -215 12
12 152 458 143 458 -5 0 -11 -7 -15 -16z"/>
<path d="M2407 3014 l-67 -124 0 -95 c0 -57 4 -95 10 -95 6 0 10 39 10 97 0
105 -6 87 102 280 16 28 25 54 21 56 -5 3 -39 -50 -76 -119z"/>
<path d="M3212 2313 c-32 -6 -49 -45 -34 -77 14 -32 68 -44 109 -24 31 15 44
67 21 85 -17 14 -66 22 -96 16z"/>
<path d="M3601 2301 c-11 -7 -13 -27 -8 -92 5 -81 5 -83 -12 -61 -41 56 -147
31 -185 -43 -29 -55 -29 -173 -1 -230 36 -73 134 -96 186 -44 19 19 19 19 31
-1 10 -16 24 -20 66 -20 l52 0 -2 248 -3 247 -55 3 c-30 1 -61 -2 -69 -7z
m-13 -243 c18 -18 15 -123 -4 -142 -19 -19 -25 -20 -48 -3 -23 17 -32 88 -16
127 13 32 45 41 68 18z"/>
<path d="M913 2261 c-54 -25 -77 -67 -71 -133 6 -61 31 -89 121 -134 57 -29
68 -39 65 -57 -4 -29 -62 -35 -131 -12 -60 20 -69 13 -65 -46 4 -58 33 -73
143 -73 130 -1 195 47 195 144 0 67 -20 93 -110 139 -59 31 -80 47 -80 62 0
36 24 36 141 2 23 -6 58 85 38 98 -52 33 -182 38 -246 10z"/>
<path d="M1270 2205 c-6 -19 -25 -44 -41 -56 -35 -25 -41 -69 -9 -69 19 0 20
-7 20 -90 0 -115 15 -155 67 -176 25 -11 53 -14 85 -11 73 9 88 21 88 69 l0
41 -39 -6 c-22 -3 -44 0 -50 6 -6 6 -11 44 -11 84 l0 73 29 0 c52 0 61 8 61
56 l0 44 -45 0 c-45 0 -45 0 -45 35 l0 35 -49 0 c-48 0 -50 -1 -61 -35z"/>
<path d="M1631 2170 c-79 -19 -121 -80 -121 -178 0 -123 62 -187 180 -187 87
0 137 26 168 85 26 51 30 133 8 183 -33 81 -131 121 -235 97z m96 -120 c27
-54 8 -142 -33 -148 -25 -4 -44 33 -44 88 0 82 47 119 77 60z"/>
<path d="M2455 2174 c-64 -15 -105 -27 -105 -31 0 -5 40 -83 43 -83 1 0 24 7
50 15 52 16 87 8 87 -20 0 -11 -11 -15 -38 -15 -61 0 -140 -28 -158 -55 -20
-31 -20 -106 1 -138 17 -27 61 -47 102 -47 29 0 95 26 104 42 4 7 11 3 18 -11
10 -17 21 -21 61 -21 l50 0 0 130 c0 150 -11 190 -60 215 -33 17 -119 28 -155
19z m75 -229 c0 -26 -41 -62 -60 -50 -16 10 -12 53 8 64 31 19 52 13 52 -14z"/>
<path d="M2916 2170 c-15 -5 -37 -17 -47 -26 -18 -16 -19 -16 -19 4 0 20 -5
22 -55 22 l-55 0 0 -180 0 -180 70 0 70 0 0 104 c0 112 8 149 36 160 37 14 49
-17 52 -144 l4 -120 70 0 71 0 -5 138 c-5 145 -15 181 -54 207 -30 19 -100 27
-138 15z"/>
<path d="M1900 2160 c0 -5 29 -83 65 -172 36 -89 65 -170 65 -179 0 -25 -37
-52 -70 -51 -29 1 -30 0 -30 -48 0 -45 3 -50 25 -56 30 -8 89 3 126 22 45 23
67 64 149 284 l78 210 -73 0 -72 0 -36 -117 c-27 -88 -36 -109 -36 -82 -1 19
-12 71 -25 115 l-23 79 -72 3 c-45 2 -71 -1 -71 -8z"/>
<path d="M3170 1990 l0 -180 75 0 75 0 0 180 0 180 -75 0 -75 0 0 -180z"/>
<path d="M3802 2026 c3 -128 5 -148 24 -173 41 -56 149 -68 195 -22 24 24 25
24 32 -1 4 -17 14 -20 61 -20 l56 0 0 180 0 180 -70 0 -70 0 0 -99 c0 -54 -5
-112 -11 -129 -14 -40 -39 -49 -61 -22 -15 18 -18 42 -18 136 l0 114 -71 0
-71 0 4 -144z"/>
</g>
</svg>
