<svg version="1.0" xmlns="http://www.w3.org/2000/svg" width="666.667" height="666.667" viewBox="0 0 500 500"><path d="M220 184.5c0 1.6 6.5 14.6 6.8 13.6.5-1.5-4.8-14.1-6-14.1-.4 0-.8.2-.8.5zm46.8 13.5c2.1 7.9 4 13.3 4.4 12.6.7-1.2 0-4.3-4.8-21.4-.8-2.8-1.8-5.2-2.3-5.2-.5 0 .7 6.3 2.7 14zm26.5-12.4c-.3.9-3.7 11.1-7.4 22.7-6.1 18.8-7.2 23.3-5.4 21.5 1.2-1.2 15.2-45.8 14.3-45.8-.5 0-1.1.7-1.5 1.6zm-52.6 13L234 211v9.5c0 5.7.4 9.5 1 9.5s1-3.9 1-9.7c0-10.5-.6-8.7 10.2-28 1.6-2.8 2.5-5.4 2.1-5.6-.5-.3-3.9 5-7.6 11.9zm80.5 70.1c-3.2.6-4.9 4.5-3.4 7.7 1.4 3.2 6.8 4.4 10.9 2.4 3.1-1.5 4.4-6.7 2.1-8.5-1.7-1.4-6.6-2.2-9.6-1.6zm38.9 1.2c-1.1.7-1.3 2.7-.8 9.2.5 8.1.5 8.3-1.2 6.1-4.1-5.6-14.7-3.1-18.5 4.3-2.9 5.5-2.9 17.3-.1 23 3.6 7.3 13.4 9.6 18.6 4.4 1.9-1.9 1.9-1.9 3.1.1 1 1.6 2.4 2 6.6 2h5.2l-.2-24.8-.3-24.7-5.5-.3c-3-.1-6.1.2-6.9.7zm-1.3 24.3c1.8 1.8 1.5 12.3-.4 14.2-1.9 1.9-2.5 2-4.8.3s-3.2-8.8-1.6-12.7c1.3-3.2 4.5-4.1 6.8-1.8zM91.3 273.9c-5.4 2.5-7.7 6.7-7.1 13.3.6 6.1 3.1 8.9 12.1 13.4 5.7 2.9 6.8 3.9 6.5 5.7-.4 2.9-6.2 3.5-13.1 1.2-6-2-6.9-1.3-6.5 4.6.4 5.8 3.3 7.3 14.3 7.3 13 .1 19.5-4.7 19.5-14.4 0-6.7-2-9.3-11-13.9-5.9-3.1-8-4.7-8-6.2 0-3.6 2.4-3.6 14.1-.2 2.3.6 5.8-8.5 3.8-9.8-5.2-3.3-18.2-3.8-24.6-1zm35.7 5.6c-.6 1.9-2.5 4.4-4.1 5.6-3.5 2.5-4.1 6.9-.9 6.9 1.9 0 2 .7 2 9 0 11.5 1.5 15.5 6.7 17.6 2.5 1.1 5.3 1.4 8.5 1.1 7.3-.9 8.8-2.1 8.8-6.9v-4.1l-3.9.6c-2.2.3-4.4 0-5-.6-.6-.6-1.1-4.4-1.1-8.4V293h2.9c5.2 0 6.1-.8 6.1-5.6V283h-4.5c-4.5 0-4.5 0-4.5-3.5V276h-4.9c-4.8 0-5 .1-6.1 3.5zm36.1 3.5c-7.9 1.9-12.1 8-12.1 17.8 0 12.3 6.2 18.7 18 18.7 8.7 0 13.7-2.6 16.8-8.5 2.6-5.1 3-13.3.8-18.3-3.3-8.1-13.1-12.1-23.5-9.7zm9.6 12c2.7 5.4.8 14.2-3.3 14.8-2.5.4-4.4-3.3-4.4-8.8 0-8.2 4.7-11.9 7.7-6zm72.8-12.4c-6.4 1.5-10.5 2.7-10.5 3.1 0 .5 4 8.3 4.3 8.3.1 0 2.4-.7 5-1.5 5.2-1.6 8.7-.8 8.7 2 0 1.1-1.1 1.5-3.8 1.5-6.1 0-14 2.8-15.8 5.5-2 3.1-2 10.6.1 13.8 1.7 2.7 6.1 4.7 10.2 4.7 2.9 0 9.5-2.6 10.4-4.2.4-.7 1.1-.3 1.8 1.1 1 1.7 2.1 2.1 6.1 2.1h5v-13c0-15-1.1-19-6-21.5-3.3-1.7-11.9-2.8-15.5-1.9zm7.5 22.9c0 2.6-4.1 6.2-6 5-1.6-1-1.2-5.3.8-6.4 3.1-1.9 5.2-1.3 5.2 1.4zm38.6-22.5c-1.5.5-3.7 1.7-4.7 2.6-1.8 1.6-1.9 1.6-1.9-.4s-.5-2.2-5.5-2.2H274v36h14v-10.4c0-11.2.8-14.9 3.6-16 3.7-1.4 4.9 1.7 5.2 14.4l.4 12h14.1l-.5-13.8c-.5-14.5-1.5-18.1-5.4-20.7-3-1.9-10-2.7-13.8-1.5zM190 284c0 .5 2.9 8.3 6.5 17.2 3.6 8.9 6.5 17 6.5 17.9 0 2.5-3.7 5.2-7 5.1-2.9-.1-3 0-3 4.8 0 4.5.3 5 2.5 5.6 3 .8 8.9-.3 12.6-2.2 4.5-2.3 6.7-6.4 14.9-28.4l7.8-21h-14.5l-3.6 11.7c-2.7 8.8-3.6 10.9-3.6 8.2-.1-1.9-1.2-7.1-2.5-11.5l-2.3-7.9-7.2-.3c-4.5-.2-7.1.1-7.1.8zm127 17v18h15v-36h-15v18zm63.2-3.6c.3 12.8.5 14.8 2.4 17.3 4.1 5.6 14.9 6.8 19.5 2.2 2.4-2.4 2.5-2.4 3.2.1.4 1.7 1.4 2 6.1 2h5.6v-36h-14v9.9c0 5.4-.5 11.2-1.1 12.9-1.4 4-3.9 4.9-6.1 2.2-1.5-1.8-1.8-4.2-1.8-13.6V283h-14.2l.4 14.4z"/></svg>