<svg xmlns="http://www.w3.org/2000/svg" viewBox="0 0 512 512"><path d="M467 331h-15v-15c0-24.813-20.187-45-45-45H271v-30h45c8.284 0 15-6.716 15-15s-6.716-15-15-15h-15v-30h45c24.813 0 45-20.187 45-45V45c0-24.813-20.187-45-45-45H166c-24.813 0-45 20.187-45 45v91c0 24.813 20.187 45 45 45h45v30h-15c-8.284 0-15 6.716-15 15s6.716 15 15 15h45v30H105c-24.813 0-45 20.187-45 45v15H45c-24.813 0-45 20.187-45 45v30c0 24.813 20.187 45 45 45h15v31H45c-8.284 0-15 6.716-15 15s6.716 15 15 15h60c8.284 0 15-6.716 15-15s-6.716-15-15-15H90v-31h15c24.813 0 45-20.187 45-45v-30c0-24.813-20.187-45-45-45H90v-15c0-8.271 6.729-15 15-15h136v30h-15c-24.813 0-45 20.187-45 45v30c0 24.813 20.187 45 45 45h15v31h-15c-8.284 0-15 6.716-15 15s6.716 15 15 15h60c8.284 0 15-6.716 15-15s-6.716-15-15-15h-15v-31h15c24.813 0 45-20.187 45-45v-30c0-24.813-20.187-45-45-45h-15v-30h136c8.271 0 15 6.729 15 15v15h-15c-24.813 0-45 20.187-45 45v30c0 24.813 20.187 45 45 45h15v31h-15c-8.284 0-15 6.716-15 15s6.716 15 15 15h60c8.284 0 15-6.716 15-15s-6.716-15-15-15h-15v-31h15c24.813 0 45-20.187 45-45v-30c0-24.813-20.187-45-45-45zm-362 30c8.271 0 15 6.729 15 15v30c0 8.271-6.729 15-15 15H45c-8.271 0-15-6.729-15-15v-30c0-8.271 6.729-15 15-15h60zm61-210c-8.271 0-15-6.729-15-15V45c0-8.271 6.729-15 15-15h180c8.271 0 15 6.729 15 15v91c0 8.271-6.729 15-15 15H166zm120 210c8.271 0 15 6.729 15 15v30c0 8.271-6.729 15-15 15h-60c-8.271 0-15-6.729-15-15v-30c0-8.271 6.729-15 15-15h60zm-45-150v-30h30v30h-30zm241 195c0 8.271-6.729 15-15 15h-60c-8.271 0-15-6.729-15-15v-30c0-8.271 6.729-15 15-15h60c8.271 0 15 6.729 15 15v30z"/></svg>